<?xml version="1.0" standalone="no"?>
<!DOCTYPE svg PUBLIC "-//W3C//DTD SVG 20010904//EN"
 "http://www.w3.org/TR/2001/REC-SVG-20010904/DTD/svg10.dtd">
<svg version="1.0" xmlns="http://www.w3.org/2000/svg"
 width="512.000000pt" height="512.000000pt" viewBox="0 0 512.000000 512.000000"
 preserveAspectRatio="xMidYMid meet">
<metadata>
Created by potrace 1.14, written by Peter Selinger 2001-2017
</metadata>
<g transform="translate(0.000000,512.000000) scale(0.100000,-0.100000)"
fill="#000000" stroke="none">
<path d="M1644 4879 c-151 -11 -294 -30 -484 -64 -47 -8 -89 -15 -93 -15 -8 0
-7 -27 8 -160 15 -136 18 -166 40 -395 9 -88 18 -176 20 -195 2 -19 7 -64 10
-100 3 -36 8 -81 10 -100 2 -19 9 -82 15 -140 6 -58 13 -125 15 -150 3 -25 7
-67 10 -95 3 -27 7 -70 10 -95 3 -25 7 -70 10 -100 2 -30 16 -165 29 -300 27
-263 38 -373 40 -405 1 -11 -4 -51 -11 -90 -7 -38 -16 -83 -19 -100 -35 -202
-56 -319 -64 -360 -6 -27 -37 -198 -70 -380 -32 -181 -100 -559 -150 -838 -51
-280 -90 -510 -87 -513 5 -5 270 -48 367 -59 30 -3 84 -10 120 -15 36 -5 101
-12 145 -15 44 -4 106 -10 137 -14 115 -15 487 -19 693 -7 804 45 1461 277
2037 718 l95 73 -139 165 c-77 91 -150 176 -162 190 -11 14 -55 66 -96 115
-41 50 -77 92 -80 95 -3 3 -64 74 -135 159 -72 85 -157 186 -191 225 -33 39
-109 130 -169 201 -60 72 -114 135 -120 141 -5 6 -28 33 -50 60 -52 63 -111
133 -139 164 -77 88 -117 141 -114 149 1 5 138 148 303 316 165 169 352 360
415 425 63 65 197 202 298 304 100 102 182 190 182 195 0 4 -15 21 -34 37 -18
16 -60 54 -93 84 -33 30 -71 64 -84 75 -14 11 -49 41 -79 66 -244 205 -668
449 -980 562 -433 158 -891 220 -1366 186z m636 -1049 c31 -43 40 -119 39
-338 0 -107 3 -197 6 -201 4 -3 88 -7 188 -7 100 -1 190 -2 200 -3 16 -1 18
-9 12 -78 -6 -88 -24 -191 -34 -198 -4 -2 -41 -7 -82 -10 -91 -8 -167 -21
-236 -43 l-53 -16 0 -145 c-2 -673 3 -730 77 -778 36 -24 130 -26 216 -4 47
12 70 14 76 7 15 -18 40 -118 43 -169 2 -43 -1 -50 -27 -67 -39 -25 -172 -67
-270 -84 -108 -18 -316 -19 -397 0 -88 21 -179 65 -232 114 -70 65 -108 140
-142 285 -4 17 -9 218 -11 447 l-4 417 -47 15 c-26 9 -85 19 -132 23 -97 9
-90 0 -78 116 8 80 35 167 51 168 7 1 55 2 107 3 l95 1 3 201 2 201 76 12
c144 24 349 100 444 165 32 22 38 22 62 10 14 -8 36 -27 48 -44z"/>
</g>
</svg>
