<?xml version="1.0" standalone="no"?>
<!DOCTYPE svg PUBLIC "-//W3C//DTD SVG 20010904//EN"
 "http://www.w3.org/TR/2001/REC-SVG-20010904/DTD/svg10.dtd">
<svg version="1.0" xmlns="http://www.w3.org/2000/svg"
 width="1024.000000pt" height="1024.000000pt" viewBox="0 0 1024.000000 1024.000000"
 preserveAspectRatio="xMidYMid meet">
<metadata>
Created by potrace 1.14, written by Peter Selinger 2001-2017
</metadata>
<g transform="translate(0.000000,1024.000000) scale(0.100000,-0.100000)"
fill="#000000" stroke="none">
<path d="M5260 8930 l-12 -30 -117 -1 c-160 -1 -408 -13 -471 -23 -14 -3 -50
-7 -81 -11 -31 -3 -65 -7 -75 -9 -11 -2 -41 -7 -67 -10 -27 -4 -57 -9 -67 -11
-9 -2 -34 -6 -53 -9 -199 -32 -668 -163 -822 -231 -16 -7 -86 -36 -155 -65
-340 -141 -815 -427 -1085 -651 -11 -9 -63 -52 -115 -95 -168 -138 -300 -262
-580 -548 l-84 -86 59 -56 c33 -31 139 -132 235 -225 96 -92 200 -191 230
-220 30 -28 140 -133 244 -233 104 -99 210 -201 236 -226 26 -25 128 -122 226
-216 99 -94 198 -188 220 -210 23 -21 119 -113 214 -204 95 -91 205 -196 246
-235 l74 -70 -52 -105 c-28 -58 -121 -247 -206 -420 -85 -173 -196 -400 -247
-505 -188 -384 -642 -1310 -796 -1624 -59 -119 -104 -219 -100 -222 11 -11
1032 -524 1141 -574 413 -187 694 -294 1000 -379 192 -53 325 -83 520 -116
160 -26 187 -30 255 -36 33 -3 71 -7 85 -9 130 -22 727 -22 860 0 14 2 48 6
75 9 103 11 152 17 205 26 115 20 120 20 215 40 28 6 59 12 70 14 50 10 238
59 315 83 47 15 93 28 102 30 38 7 380 138 498 191 225 101 471 232 695 370
106 65 375 246 451 304 l53 40 -53 71 c-29 40 -140 191 -246 337 -107 146
-240 328 -297 405 -57 77 -225 307 -374 510 -148 204 -279 381 -289 395 -10
14 -91 124 -179 245 -89 121 -184 252 -213 290 -28 39 -84 116 -125 172 l-74
102 64 93 c35 51 223 323 417 603 194 281 371 537 394 570 22 33 44 65 48 70
9 11 78 110 253 365 58 85 130 189 158 230 29 41 84 120 122 175 38 55 105
152 149 215 43 63 93 135 110 160 16 25 60 88 98 141 37 53 68 100 68 104 0
10 -43 44 -57 45 -6 0 -13 3 -15 8 -3 7 -198 140 -223 152 -5 3 -37 23 -70 44
-62 41 -268 166 -320 196 -27 15 -107 59 -210 117 -52 29 -383 193 -458 227
-46 21 -160 68 -302 126 -11 4 -47 18 -80 30 -33 12 -69 26 -80 30 -11 5 -85
30 -165 55 -233 74 -460 131 -680 170 -47 8 -96 17 -110 19 -14 3 -47 7 -75
10 -27 4 -68 9 -90 12 -48 6 -95 11 -195 19 -57 5 -92 15 -144 41 -38 19 -72
34 -76 34 -4 0 -13 -13 -20 -30z m48 -1627 c41 -25 92 -75 108 -105 40 -77 47
-151 50 -548 2 -212 3 -391 3 -397 1 -10 81 -13 366 -13 285 0 365 -3 366 -12
1 -34 -3 -190 -6 -210 -2 -13 -6 -45 -10 -73 -3 -27 -15 -88 -26 -135 l-20
-85 -92 -2 c-173 -5 -320 -29 -489 -80 -73 -22 -88 -30 -89 -47 0 -12 -1 -298
-1 -636 1 -662 7 -773 53 -895 43 -117 130 -163 289 -152 73 6 238 40 292 62
13 5 22 -4 39 -36 20 -40 55 -134 57 -152 0 -4 3 -31 6 -60 17 -159 18 -156
-24 -182 -108 -68 -386 -151 -570 -170 -36 -4 -74 -9 -85 -12 -56 -12 -367
-11 -460 3 -299 43 -503 158 -631 354 -70 109 -108 214 -146 403 -19 96 -21
146 -25 819 l-4 718 -77 24 c-42 13 -104 27 -137 31 -33 4 -67 9 -75 11 -8 1
-53 3 -99 3 l-84 1 6 128 c7 132 22 214 60 320 l22 62 192 0 193 0 2 362 3
362 110 18 c198 33 405 94 585 172 99 44 219 110 260 145 31 25 53 26 88 4z"/>
</g>
</svg>
