<?xml version="1.0" standalone="no"?>
<!DOCTYPE svg PUBLIC "-//W3C//DTD SVG 20010904//EN"
 "http://www.w3.org/TR/2001/REC-SVG-20010904/DTD/svg10.dtd">
<svg version="1.0" xmlns="http://www.w3.org/2000/svg"
 width="512.000000pt" height="512.000000pt" viewBox="0 0 512.000000 512.000000"
 preserveAspectRatio="xMidYMid meet">
<metadata>
Created by potrace 1.14, written by Peter Selinger 2001-2017
</metadata>
<g transform="translate(0.000000,512.000000) scale(0.100000,-0.100000)"
fill="#000000" stroke="none">
<path d="M2651 4109 c-110 -91 -419 -209 -626 -238 -44 -7 -89 -14 -100 -16
-19 -4 -20 -12 -20 -270 0 -259 0 -265 -20 -266 -11 -1 -72 -1 -137 -1 l-116
0 -15 -41 c-43 -116 -58 -198 -61 -327 l-1 -85 35 -2 c98 -4 207 -13 220 -17
8 -3 33 -10 55 -15 l40 -10 1 -448 c0 -448 5 -597 24 -689 68 -340 223 -503
545 -574 76 -17 117 -19 265 -16 260 6 451 45 618 127 l84 41 -5 81 c-3 45
-10 105 -17 132 -14 64 -64 160 -81 159 -8 -1 -52 -12 -99 -24 -102 -27 -224
-32 -264 -10 -32 17 -61 68 -71 125 -4 22 -10 49 -12 60 -3 11 -6 241 -8 511
l-3 492 60 17 c34 9 73 19 87 21 14 3 33 7 41 9 33 9 127 17 296 24 25 2 60
205 63 362 l2 96 -258 1 c-142 0 -265 1 -274 1 -14 1 -16 30 -16 244 0 133 -3
269 -7 302 -15 129 -57 199 -146 245 -48 24 -49 24 -79 -1z"/>
</g>
</svg>
